<svg xmlns="http://www.w3.org/2000/svg"  viewBox="0 0 100 100" width="500px" height="500px"><path fill="#c8ede6" d="M87.214,55.677c0.3-0.616,0.566-1.264,0.796-1.943c2.633-7.77-1.349-17.078-9.733-19.325C77.37,23.026,69.37,15.216,60.335,13.884c-10.341-1.525-19.814,5.044-22.966,15.485c-3.799-1.346-7.501-1.182-10.99,0.857c-1.583,0.732-3.031,1.812-4.33,3.233c-1.907,2.086-3.147,4.719-3.652,7.495c-0.748,0.118-1.483,0.236-2.176,0.484c-4.04,1.449-6.589,4.431-7.288,8.923c-0.435,2.797,0.443,5.587,0.933,6.714c1.935,4.455,6.422,6.98,10.981,6.312c0.227-0.033,0.557,0.069,0.752,0.233c0.241,7.12,3.698,13.417,8.884,17.014c8.321,5.772,19.027,3.994,25.781-3.921c2.894,2.96,6.338,4.398,10.384,3.876c4.023-0.519,7.147-2.739,9.426-6.349c1.053,0.283,2.051,0.691,3.083,0.804c4.042,0.442,7.297-1.184,9.732-4.8c0.083-0.124,0.203-0.219,0.306-0.328c0.348-0.798,0.696-1.596,1.044-2.394c0.155-1.211,0.429-2.423,0.443-3.632C90.722,60.634,89.39,57.667,87.214,55.677z"/><path fill="#fdfcef" d="M37.414,71.593c0,0,11.691,0,11.762,0c2.7,0,4.888-2.189,4.888-4.889c0-2.355-1.666-4.321-3.884-4.784c0.026-0.206,0.043-0.415,0.043-0.628c0-2.796-2.267-5.063-5.063-5.063c-1.651,0-3.113,0.794-4.037,2.017c-0.236-3.113-3.017-5.514-6.27-5.116c-2.379,0.291-4.346,2.13-4.784,4.486c-0.14,0.756-0.126,1.489,0.014,2.177c-0.638-0.687-1.546-1.119-2.557-1.119c-1.85,0-3.361,1.441-3.48,3.261c-0.84-0.186-1.754-0.174-2.717,0.188c-1.84,0.691-3.15,2.423-3.227,4.387c-0.109,2.789,2.12,5.085,4.885,5.085c0.21,0,0.948,0,1.118,0h10.151"/><path fill="#472b29" d="M49.176,72.093H37.414c-0.276,0-0.5-0.224-0.5-0.5s0.224-0.5,0.5-0.5h11.762c2.419,0,4.388-1.969,4.388-4.388c0-2.067-1.466-3.873-3.486-4.295c-0.255-0.053-0.426-0.292-0.394-0.55c0.023-0.186,0.039-0.375,0.039-0.567c0-2.516-2.047-4.563-4.563-4.563c-1.439,0-2.765,0.663-3.638,1.818c-0.125,0.167-0.338,0.239-0.54,0.178c-0.199-0.059-0.342-0.234-0.357-0.441c-0.104-1.377-0.779-2.671-1.85-3.549c-1.082-0.888-2.451-1.281-3.86-1.109c-2.166,0.265-3.956,1.943-4.353,4.081c-0.124,0.668-0.12,1.337,0.012,1.987c0.045,0.219-0.062,0.442-0.261,0.544c-0.2,0.102-0.442,0.06-0.595-0.104c-0.574-0.619-1.352-0.96-2.19-0.96c-1.569,0-2.878,1.227-2.981,2.794c-0.01,0.146-0.082,0.28-0.199,0.367c-0.117,0.087-0.267,0.118-0.408,0.088c-0.84-0.186-1.636-0.132-2.433,0.167c-1.669,0.626-2.835,2.209-2.903,3.938c-0.047,1.207,0.387,2.35,1.222,3.218c0.835,0.868,1.959,1.347,3.164,1.347h11.269c0.276,0,0.5,0.224,0.5,0.5s-0.224,0.5-0.5,0.5H22.988c-1.479,0-2.859-0.587-3.884-1.654c-1.025-1.066-1.558-2.469-1.5-3.95c0.083-2.126,1.51-4.069,3.551-4.835c0.801-0.3,1.627-0.399,2.468-0.299c0.377-1.822,1.997-3.182,3.905-3.182c0.684,0,1.354,0.18,1.944,0.51c0-0.385,0.035-0.772,0.107-1.159c0.476-2.562,2.62-4.573,5.215-4.89c1.677-0.208,3.32,0.266,4.615,1.328c1.004,0.823,1.716,1.951,2.038,3.193c1.012-0.916,2.319-1.426,3.714-1.426c3.067,0,5.563,2.496,5.563,5.563c0,0.083-0.002,0.166-0.007,0.249c2.254,0.672,3.848,2.777,3.848,5.164C54.564,69.676,52.147,72.093,49.176,72.093z"/><path fill="#fdfcef" d="M34.581,60.824c-1.808-0.119-3.365,1.13-3.476,2.789c-0.014,0.206-0.005,0.409,0.025,0.606c-0.349-0.394-0.865-0.661-1.458-0.7c-1.085-0.071-2.022,0.645-2.158,1.62c-0.197-0.054-0.403-0.09-0.616-0.104c-1.582-0.104-2.944,0.989-3.042,2.441"/><path fill="#472b29" d="M23.856,67.726c-0.005,0-0.011,0-0.017,0c-0.138-0.009-0.242-0.128-0.233-0.266c0.107-1.587,1.581-2.786,3.308-2.674c0.135,0.009,0.272,0.027,0.409,0.053c0.274-0.968,1.264-1.639,2.366-1.568c0.425,0.028,0.823,0.16,1.163,0.382c0.001-0.019,0.002-0.038,0.003-0.056c0.121-1.792,1.8-3.14,3.742-3.021c0.138,0.009,0.242,0.128,0.233,0.266c-0.009,0.138-0.128,0.244-0.266,0.233c-1.656-0.106-3.108,1.038-3.21,2.556c-0.013,0.184-0.005,0.37,0.023,0.552c0.017,0.11-0.041,0.217-0.141,0.265c-0.098,0.047-0.219,0.023-0.293-0.061c-0.318-0.359-0.788-0.584-1.287-0.617c-0.947-0.063-1.776,0.555-1.894,1.405c-0.01,0.071-0.05,0.134-0.11,0.174s-0.134,0.052-0.204,0.033c-0.188-0.051-0.38-0.084-0.567-0.096c-1.453-0.104-2.687,0.896-2.775,2.208C24.097,67.625,23.987,67.726,23.856,67.726z"/><path fill="#fdfcef" d="M51.155,62.493c-1.699-0.801-3.664-0.234-4.389,1.267c-0.09,0.186-0.157,0.379-0.201,0.574"/><path fill="#472b29" d="M46.566,64.583c-0.018,0-0.037-0.002-0.056-0.006c-0.135-0.031-0.219-0.165-0.188-0.299c0.049-0.216,0.123-0.427,0.219-0.626c0.783-1.621,2.901-2.242,4.721-1.384c0.125,0.059,0.179,0.208,0.12,0.333c-0.058,0.125-0.208,0.179-0.333,0.12c-1.574-0.743-3.394-0.227-4.058,1.15c-0.08,0.165-0.141,0.34-0.182,0.52C46.783,64.505,46.68,64.583,46.566,64.583z"/><path fill="#fff" d="M16.879 47.713H6.848c-.276 0-.5-.224-.5-.5s.224-.5.5-.5h10.03c.276 0 .5.224.5.5S17.155 47.713 16.879 47.713zM19.76 47.713h-1.446c-.276 0-.5-.224-.5-.5s.224-.5.5-.5h1.446c.276 0 .5.224.5.5S20.036 47.713 19.76 47.713zM23.815 47.713h-2.546c-.276 0-.5-.224-.5-.5s.224-.5.5-.5h2.546c.276 0 .5.224.5.5S24.091 47.713 23.815 47.713zM23.815 49.578h-9.617c-.276 0-.5-.224-.5-.5s.224-.5.5-.5h9.617c.276 0 .5.224.5.5S24.091 49.578 23.815 49.578zM12.467 49.578h-.58c-.276 0-.5-.224-.5-.5s.224-.5.5-.5h.58c.276 0 .5.224.5.5S12.743 49.578 12.467 49.578zM10.09 49.578H8.634c-.276 0-.5-.224-.5-.5s.224-.5.5-.5h1.456c.276 0 .5.224.5.5S10.366 49.578 10.09 49.578zM19.226 45.848h-5.028c-.276 0-.5-.224-.5-.5s.224-.5.5-.5h5.028c.276 0 .5.224.5.5S19.502 45.848 19.226 45.848zM19.226 43.983h-1.257c-.276 0-.5-.224-.5-.5s.224-.5.5-.5h1.257c.276 0 .5.224.5.5S19.502 43.983 19.226 43.983zM15.957 51.443h-1.759c-.276 0-.5-.224-.5-.5s.224-.5.5-.5h1.759c.276 0 .5.224.5.5S16.233 51.443 15.957 51.443zM70.057 21.436H60.026c-.276 0-.5-.224-.5-.5s.224-.5.5-.5h10.031c.276 0 .5.224.5.5S70.333 21.436 70.057 21.436zM72.938 21.436h-1.446c-.276 0-.5-.224-.5-.5s.224-.5.5-.5h1.446c.276 0 .5.224.5.5S73.214 21.436 72.938 21.436zM76.992 21.436h-2.546c-.276 0-.5-.224-.5-.5s.224-.5.5-.5h2.546c.276 0 .5.224.5.5S77.269 21.436 76.992 21.436zM74.967 17.706H65.35c-.276 0-.5-.224-.5-.5s.224-.5.5-.5h9.616c.276 0 .5.224.5.5S75.243 17.706 74.967 17.706zM63.619 17.706h-.58c-.276 0-.5-.224-.5-.5s.224-.5.5-.5h.58c.276 0 .5.224.5.5S63.895 17.706 63.619 17.706zM61.242 17.706h-1.457c-.276 0-.5-.224-.5-.5s.224-.5.5-.5h1.457c.276 0 .5.224.5.5S61.518 17.706 61.242 17.706zM72.404 19.571h-5.027c-.276 0-.5-.224-.5-.5s.224-.5.5-.5h5.027c.276 0 .5.224.5.5S72.68 19.571 72.404 19.571z"/><path fill="#fff" d="M72.404 17.706h-1.257c-.276 0-.5-.224-.5-.5s.224-.5.5-.5h1.257c.276 0 .5.224.5.5S72.68 17.706 72.404 17.706zM65.921 19.571h-1.758c-.276 0-.5-.224-.5-.5s.224-.5.5-.5h1.758c.276 0 .5.224.5.5S66.197 19.571 65.921 19.571z"/><path fill="#ee3e54" d="M70.27,71.491H34.332c-3.379,0-6.143-2.764-6.143-6.143V52.887c0-3.379,2.764-6.143,6.143-6.143H70.27c3.379,0,6.143,2.764,6.143,6.143v12.461C76.413,68.726,73.649,71.491,70.27,71.491z"/><path fill="#472b29" d="M70.27,72.191H34.332c-3.773,0-6.843-3.07-6.843-6.843V52.887c0-3.773,3.07-6.843,6.843-6.843H70.27c3.773,0,6.843,3.07,6.843,6.843v12.461C77.113,69.121,74.043,72.191,70.27,72.191z M34.332,47.445c-3.001,0-5.443,2.441-5.443,5.442v12.461c0,3.001,2.441,5.443,5.443,5.443H70.27c3.001,0,5.442-2.441,5.442-5.443V52.887c0-3.001-2.441-5.442-5.442-5.442H34.332z"/><path fill="#e02b4a" d="M77.941,53.724H26.827c-0.298,0-0.542-0.244-0.542-0.542v-4.611c0-2.75,2.25-5,5-5h42.031c2.75,0,5,2.25,5,5v4.777C78.316,53.555,78.148,53.724,77.941,53.724z"/><path fill="#472b29" d="M77.942,54.424H26.827c-0.685,0-1.242-0.557-1.242-1.242v-4.611c0-3.143,2.557-5.7,5.7-5.7h42.032c3.143,0,5.7,2.557,5.7,5.7v4.777C79.017,53.942,78.534,54.424,77.942,54.424z M26.985,53.024h50.631v-4.452c0-2.371-1.929-4.3-4.3-4.3H31.285c-2.371,0-4.3,1.929-4.3,4.3V53.024z"/><path fill="#f94b6c" d="M35.153,47.061h42.392c-0.515-1.764-2.286-3.082-4.396-3.082H31.392c-2.11,0-3.881,1.317-4.396,3.082H35.153z"/><path fill="#7c8a9f" d="M39.293,43.254v-0.952c0-0.523-0.428-0.952-0.952-0.952H32.63c-0.523,0-0.952,0.428-0.952,0.952v0.952"/><path fill="#472b29" d="M39.293,43.629c-0.207,0-0.375-0.168-0.375-0.375v-0.952c0-0.318-0.259-0.577-0.577-0.577h-5.71c-0.318,0-0.577,0.259-0.577,0.577v0.952c0,0.207-0.168,0.375-0.375,0.375s-0.375-0.168-0.375-0.375v-0.952c0-0.731,0.595-1.327,1.327-1.327h5.71c0.732,0,1.327,0.595,1.327,1.327v0.952C39.668,43.461,39.5,43.629,39.293,43.629z"/><path fill="#7c8a9f" d="M72.923,43.254v-0.952c0-0.523-0.428-0.952-0.952-0.952H66.26c-0.523,0-0.952,0.428-0.952,0.952v0.952"/><path fill="#472b29" d="M72.923,43.629c-0.207,0-0.375-0.168-0.375-0.375v-0.952c0-0.318-0.259-0.577-0.577-0.577H66.26c-0.318,0-0.577,0.259-0.577,0.577v0.952c0,0.207-0.168,0.375-0.375,0.375s-0.375-0.168-0.375-0.375v-0.952c0-0.731,0.595-1.327,1.327-1.327h5.711c0.731,0,1.327,0.595,1.327,1.327v0.952C73.298,43.461,73.13,43.629,72.923,43.629z"/><path fill="#8e9db5" d="M37.548,41.351c0.472-2.47,2.689-5.076,5.399-5.076h18.678c2.71,0,4.966,2.606,5.438,5.076h3.626c-0.497-4.405-4.394-8.249-9.117-8.249H42.999c-4.722,0-8.619,3.844-9.117,8.249H37.548z"/><path fill="#472b29" d="M70.69 41.726h-3.626c-.18 0-.334-.128-.368-.305-.44-2.304-2.583-4.771-5.07-4.771H42.947c-2.544 0-4.592 2.477-5.031 4.771-.034.177-.188.305-.368.305h-3.666c-.107 0-.208-.045-.28-.125-.071-.08-.105-.186-.093-.292.543-4.812 4.711-8.582 9.489-8.582h18.575c4.777 0 8.946 3.77 9.489 8.582.012.106-.022.212-.093.292C70.899 41.68 70.797 41.726 70.69 41.726zM67.365 40.976h2.894c-.687-4.172-4.496-7.499-8.686-7.499H42.999c-4.19 0-7.999 3.327-8.686 7.499h2.934c.612-2.498 2.888-5.076 5.701-5.076h18.678C64.461 35.9 66.752 38.478 67.365 40.976zM69.86 71.371c-.002 0-.004 0-.006 0-.207-.003-.372-.173-.369-.381.06-3.969 3.179-7.198 6.953-7.198l.053.378-.01.375c-.001 0-.003 0-.005 0-3.407 0-6.187 2.896-6.241 6.457C70.232 71.207 70.065 71.371 69.86 71.371zM35.081 71.245c-.207 0-.376-.141-.376-.348 0-.01.002-.047.003-.057 0-3.402-2.897-6.217-6.459-6.271-.207-.003-.372-.174-.369-.381.003-.205.17-.369.375-.369.002 0 .004 0 .006 0 3.969.061 7.198 3.212 7.198 7.025C35.457 71.051 35.288 71.245 35.081 71.245z"/><path fill="#b2b1c2" d="M36.137 51.503L42.449 51.503 41.197 54.041 41.197 56.579 37.389 56.579 37.409 54.041z"/><path fill="#472b29" d="M41.197,56.954h-3.807c-0.1,0-0.196-0.04-0.266-0.111s-0.11-0.167-0.109-0.267l0.019-2.448l-1.232-2.458c-0.058-0.116-0.052-0.254,0.017-0.365c0.068-0.111,0.189-0.178,0.319-0.178h6.312c0.129,0,0.25,0.067,0.318,0.177c0.068,0.11,0.075,0.248,0.018,0.364l-1.214,2.459v2.451C41.572,56.786,41.404,56.954,41.197,56.954z M37.767,56.204h3.054v-2.163c0-0.058,0.013-0.114,0.039-0.166l0.986-1.997h-5.102l1,1.995c0.026,0.053,0.04,0.111,0.04,0.171L37.767,56.204z"/><path fill="#b2b1c2" d="M62.787 51.503L69.099 51.503 67.847 54.041 67.847 56.579 64.04 56.579 64.059 54.041z"/><path fill="#472b29" d="M67.847,56.954H64.04c-0.1,0-0.196-0.04-0.266-0.111s-0.11-0.167-0.109-0.267l0.019-2.448l-1.232-2.458c-0.058-0.116-0.052-0.254,0.016-0.365c0.068-0.111,0.189-0.178,0.319-0.178h6.313c0.129,0,0.25,0.067,0.318,0.177c0.068,0.11,0.075,0.248,0.018,0.364l-1.214,2.459v2.451C68.222,56.786,68.054,56.954,67.847,56.954z M64.418,56.204h3.054v-2.163c0-0.058,0.013-0.114,0.039-0.166l0.986-1.997h-5.102l1,1.995c0.026,0.053,0.04,0.111,0.04,0.171L64.418,56.204z"/><path fill="#472b29" d="M65.943 56.829c-.138 0-.25-.112-.25-.25V55.31c0-.138.112-.25.25-.25s.25.112.25.25v1.269C66.193 56.718 66.081 56.829 65.943 56.829zM39.293 56.829c-.138 0-.25-.112-.25-.25V55.31c0-.138.112-.25.25-.25s.25.112.25.25v1.269C39.543 56.718 39.431 56.829 39.293 56.829zM68.481 47.311h-41.96c-.138 0-.25-.112-.25-.25s.112-.25.25-.25h41.96c.138 0 .25.112.25.25S68.619 47.311 68.481 47.311zM74.192 47.311h-3.807c-.138 0-.25-.112-.25-.25s.112-.25.25-.25h3.807c.138 0 .25.112.25.25S74.33 47.311 74.192 47.311zM77.999 47.311h-2.538c-.138 0-.25-.112-.25-.25s.112-.25.25-.25h2.538c.138 0 .25.112.25.25S78.137 47.311 77.999 47.311z"/><path fill="#f1bc19" d="M34.77 70.973c-.051-3.735-2.886-6.155-5.936-6.461 0 .352-.58 3.429 2.085 5.356C32.668 71.153 34.77 70.973 34.77 70.973zM70.211 70.844c.148-3.561 2.698-5.99 5.549-6.288 0 .343.463 3.319-1.949 5.213C72.176 71.02 70.211 70.844 70.211 70.844z"/><path fill="#472b29" d="M27.718 47.186c-.031 0-.063-.012-.087-.036-.049-.048-.05-.127-.002-.177l3-3.082c.048-.049.127-.05.177-.002.049.048.05.127.002.177l-3 3.082C27.783 47.174 27.751 47.186 27.718 47.186zM29.285 47.057c-.031 0-.063-.012-.087-.036-.049-.048-.05-.127-.002-.177l3-3.082c.048-.048.127-.05.177-.002.049.048.05.127.002.177l-3 3.082C29.35 47.044 29.318 47.057 29.285 47.057zM30.852 47.1c-.031 0-.063-.012-.087-.036-.049-.048-.05-.127-.002-.177l3-3.082c.049-.048.127-.05.177-.002s.05.127.002.177l-3 3.082C30.917 47.088 30.885 47.1 30.852 47.1zM32.419 47.014c-.031 0-.063-.012-.087-.036-.049-.048-.05-.127-.002-.177l3-3.082c.047-.048.127-.051.177-.002.049.048.05.127.002.177l-3 3.082C32.484 47.001 32.452 47.014 32.419 47.014zM33.986 47.143c-.031 0-.063-.012-.087-.036-.049-.048-.05-.127-.002-.177l3-3.082c.049-.048.127-.05.177-.002s.05.127.002.177l-3 3.082C34.051 47.131 34.018 47.143 33.986 47.143zM35.748 47.1c-.031 0-.063-.012-.087-.036-.049-.048-.05-.127-.002-.177l3-3.082c.048-.048.127-.05.177-.002.049.048.05.127.002.177l-3 3.082C35.813 47.088 35.78 47.1 35.748 47.1zM37.315 46.97c-.031 0-.063-.012-.087-.036-.049-.048-.05-.127-.002-.177l3-3.082c.048-.049.127-.051.177-.002.049.048.05.127.002.177l-3 3.082C37.38 46.958 37.347 46.97 37.315 46.97zM38.882 47.014c-.031 0-.063-.012-.087-.036-.049-.048-.05-.127-.002-.177l3-3.082c.048-.048.127-.051.177-.002.049.048.05.127.002.177l-3 3.082C38.947 47.001 38.914 47.014 38.882 47.014zM41.131 46.226c-.031 0-.063-.012-.087-.036-.049-.048-.05-.127-.002-.177l2.317-2.38c.048-.048.127-.051.177-.002.049.048.05.127.002.177l-2.317 2.38C41.196 46.214 41.164 46.226 41.131 46.226zM43.87 45.152c-.031 0-.063-.012-.087-.036-.049-.048-.05-.127-.002-.177l1.146-1.177c.048-.048.127-.05.177-.002.049.048.05.127.002.177l-1.146 1.177C43.935 45.139 43.903 45.152 43.87 45.152z"/><g><path fill="#fdfcef" d="M76.852,74.091c1.883,0,3.517,0,3.54,0c2.11,0,3.821-1.674,3.821-3.739c0-1.802-1.302-3.305-3.035-3.66c0.02-0.158,0.034-0.317,0.034-0.48c0-2.139-1.772-3.873-3.957-3.873c-1.29,0-2.433,0.607-3.155,1.543c-0.185-2.381-2.358-4.218-4.9-3.913c-1.859,0.223-3.397,1.629-3.739,3.431c-0.11,0.578-0.098,1.139,0.011,1.665c-0.498-0.525-1.208-0.856-1.998-0.856c-1.446,0-2.627,1.102-2.72,2.494c-0.657-0.142-1.371-0.133-2.123,0.143c-1.438,0.528-2.462,1.853-2.522,3.356c-0.085,2.133,1.657,3.889,3.818,3.889c0.164,0,0.741,0,0.874,0h7.934 M70.374,74.091h0.36"/><path fill="#472b29" d="M80.392,74.591h-3.54c-0.276,0-0.5-0.224-0.5-0.5s0.224-0.5,0.5-0.5h3.54c1.831,0,3.321-1.453,3.321-3.239c0-1.524-1.108-2.857-2.636-3.17c-0.256-0.052-0.429-0.293-0.396-0.553c0.018-0.137,0.03-0.276,0.03-0.417c0-1.86-1.551-3.373-3.457-3.373c-1.092,0-2.098,0.492-2.76,1.349c-0.126,0.164-0.339,0.231-0.539,0.173c-0.198-0.059-0.339-0.234-0.355-0.44c-0.079-1.019-0.565-1.943-1.369-2.603c-0.828-0.68-1.884-0.982-2.973-0.853c-1.646,0.197-3.006,1.442-3.307,3.028c-0.094,0.495-0.091,0.989,0.009,1.471c0.045,0.219-0.06,0.441-0.258,0.544c-0.197,0.104-0.44,0.064-0.594-0.099c-0.428-0.451-1.009-0.7-1.635-0.7c-1.169,0-2.145,0.891-2.221,2.027c-0.01,0.145-0.082,0.279-0.198,0.366s-0.264,0.119-0.407,0.089c-0.639-0.138-1.243-0.098-1.845,0.124c-1.262,0.464-2.144,1.631-2.195,2.906c-0.035,0.875,0.283,1.708,0.895,2.345c0.635,0.661,1.496,1.024,2.423,1.024h8.807c0.276,0,0.5,0.224,0.5,0.5s-0.224,0.5-0.5,0.5h-8.807c-1.185,0-2.331-0.485-3.144-1.332c-0.803-0.835-1.219-1.928-1.173-3.078c0.067-1.674,1.212-3.203,2.849-3.805c0.611-0.224,1.241-0.306,1.88-0.245c0.344-1.395,1.629-2.424,3.135-2.424c0.493,0,0.977,0.113,1.414,0.323c0.009-0.242,0.037-0.484,0.083-0.726c0.381-2.009,2.096-3.586,4.17-3.834c1.362-0.16,2.685,0.218,3.726,1.072c0.748,0.614,1.278,1.41,1.546,2.302c0.791-0.648,1.786-1.007,2.842-1.007c2.458,0,4.457,1.962,4.457,4.373c0,0.034,0,0.068-0.001,0.103c1.764,0.555,3.003,2.188,3.003,4.038C84.713,72.689,82.774,74.591,80.392,74.591z M70.734,74.591h-0.36c-0.276,0-0.5-0.224-0.5-0.5s0.224-0.5,0.5-0.5h0.36c0.276,0,0.5,0.224,0.5,0.5S71.01,74.591,70.734,74.591z"/><path fill="#472b29" d="M78.684,68.787c-0.018,0-0.036-0.002-0.055-0.006c-0.135-0.03-0.219-0.164-0.189-0.299c0.037-0.165,0.094-0.326,0.17-0.479c0.604-1.224,2.274-1.674,3.722-1.007c0.125,0.058,0.18,0.207,0.122,0.332c-0.058,0.125-0.206,0.179-0.332,0.122c-1.201-0.556-2.578-0.209-3.063,0.774c-0.058,0.118-0.102,0.241-0.13,0.367C78.902,68.708,78.799,68.787,78.684,68.787z"/><g><path fill="#472b29" d="M73.526,74.591h-1.107c-0.276,0-0.5-0.224-0.5-0.5s0.224-0.5,0.5-0.5h1.107c0.276,0,0.5,0.224,0.5,0.5S73.802,74.591,73.526,74.591z"/></g></g><g><path fill="#7c8ba2" d="M76.216,63.137l0.117,0.121c0.291,0.301,0.284,0.785-0.017,1.077L59.314,80.798c-0.301,0.291-0.785,0.284-1.077-0.017L58.12,80.66c-0.291-0.301-0.284-0.785,0.017-1.077L75.139,63.12C75.44,62.829,75.925,62.837,76.216,63.137z"/><path fill="#472b29" d="M58.785,81.261c-0.006,0-0.012,0-0.017,0c-0.271-0.004-0.523-0.113-0.71-0.307l-0.117-0.121c-0.388-0.4-0.378-1.042,0.023-1.43l17.002-16.462c0.193-0.188,0.447-0.293,0.72-0.284c0.271,0.004,0.523,0.113,0.71,0.307l0.117,0.121c0.188,0.193,0.288,0.449,0.284,0.72c-0.004,0.271-0.113,0.523-0.307,0.71L59.488,80.978C59.298,81.161,59.049,81.261,58.785,81.261z M75.669,63.156c-0.134,0-0.26,0.051-0.355,0.144L58.311,79.762c-0.097,0.094-0.152,0.222-0.154,0.359c-0.002,0.137,0.048,0.266,0.143,0.364l0.117,0.121c0.094,0.098,0.222,0.152,0.359,0.155c0.127-0.02,0.267-0.049,0.364-0.143l17.002-16.463c0.098-0.095,0.153-0.222,0.155-0.359c0.002-0.137-0.048-0.266-0.143-0.364l-0.117-0.121l0,0c-0.094-0.098-0.222-0.152-0.359-0.154C75.675,63.156,75.672,63.156,75.669,63.156z"/><path fill="#e0a825" d="M73.467,69.687l7.874-7.624c1.202-1.164,1.598-2.926,0.789-4.067c-0.964-1.361-3.091-1.276-4.508,0.096l-7.939,7.687L73.467,69.687z"/><path fill="#472b29" d="M73.468,70.062c-0.002,0-0.004,0-0.006,0c-0.1-0.001-0.194-0.042-0.264-0.114l-3.784-3.908c-0.069-0.071-0.107-0.167-0.105-0.267c0.001-0.1,0.042-0.194,0.114-0.264l7.939-7.687c0.855-0.828,1.995-1.268,3.069-1.166c0.835,0.078,1.547,0.476,2.005,1.123c0.897,1.266,0.538,3.224-0.835,4.553l-7.874,7.624C73.658,70.024,73.565,70.062,73.468,70.062z M70.214,65.788l3.262,3.369l7.604-7.363c1.091-1.056,1.418-2.629,0.744-3.58c-0.422-0.596-1.028-0.769-1.462-0.81c-0.852-0.073-1.777,0.279-2.478,0.958L70.214,65.788z"/><path fill="#8e9db5" d="M58.505 81.728L57.166 80.345 59.885 76.723 61.018 76.725 62.194 77.94 62.213 79.128z"/><path fill="#472b29" d="M58.506,81.978c-0.066,0-0.131-0.026-0.18-0.076l-1.339-1.383c-0.085-0.088-0.094-0.226-0.021-0.324l2.718-3.622c0.047-0.063,0.122-0.1,0.2-0.1l0,0l1.133,0.001c0.068,0,0.133,0.027,0.18,0.076l1.176,1.215c0.044,0.045,0.069,0.106,0.07,0.17l0.019,1.188c0.001,0.083-0.039,0.161-0.106,0.208l-3.708,2.6C58.606,81.964,58.555,81.978,58.506,81.978z M57.494,80.325l1.042,1.076L61.961,79l-0.016-0.957l-1.034-1.068l-0.902-0.001L57.494,80.325z"/><g><path fill="#fbcd59" d="M80.135,60.814l0.087,0.09c0.216,0.223,0.21,0.583-0.013,0.799l-5.89,5.703c-0.223,0.216-0.583,0.21-0.799-0.013l-0.087-0.09c-0.216-0.223-0.21-0.583,0.013-0.799l5.89-5.703C79.559,60.585,79.919,60.591,80.135,60.814z"/><path fill="#472b29" d="M73.926,67.765c-0.004,0-0.009,0-0.013,0c-0.205-0.003-0.396-0.086-0.537-0.232l-0.087-0.09c-0.293-0.303-0.286-0.788,0.017-1.082l5.89-5.703c0.304-0.294,0.79-0.286,1.082,0.017l0,0l0.087,0.09c0.142,0.146,0.218,0.34,0.215,0.544c-0.003,0.205-0.086,0.396-0.232,0.537l-5.891,5.704C74.315,67.689,74.126,67.765,73.926,67.765z M79.729,60.843c-0.092,0-0.184,0.034-0.254,0.103l-5.89,5.703c-0.145,0.14-0.148,0.372-0.008,0.517l0.087,0.09c0.067,0.07,0.158,0.109,0.256,0.11c0.094-0.017,0.19-0.035,0.26-0.102l5.891-5.704c0.07-0.067,0.109-0.158,0.11-0.256s-0.035-0.19-0.102-0.26l-0.087-0.09C79.92,60.88,79.824,60.843,79.729,60.843z"/></g><g><path fill="#fbcd59" d="M78.68,59.311l0.087,0.09c0.216,0.223,0.21,0.583-0.013,0.799l-5.89,5.703c-0.223,0.216-0.583,0.21-0.799-0.013l-0.087-0.09c-0.216-0.223-0.21-0.583,0.013-0.799l5.89-5.703C78.104,59.082,78.464,59.088,78.68,59.311z"/><path fill="#472b29" d="M72.471,66.262c-0.004,0-0.009,0-0.013,0c-0.205-0.003-0.396-0.085-0.538-0.232l-0.087-0.09c-0.293-0.304-0.286-0.789,0.018-1.082l5.89-5.703c0.304-0.293,0.789-0.286,1.082,0.017l0,0l0.087,0.09c0.142,0.146,0.218,0.339,0.215,0.544s-0.086,0.396-0.232,0.538l-5.89,5.703C72.86,66.186,72.671,66.262,72.471,66.262z M78.274,59.34c-0.092,0-0.184,0.034-0.254,0.103l-5.89,5.703c-0.145,0.14-0.148,0.372-0.009,0.517l0.087,0.09c0.067,0.069,0.159,0.109,0.257,0.11c0.084-0.003,0.19-0.035,0.26-0.102l5.89-5.703c0.07-0.068,0.109-0.159,0.111-0.257s-0.035-0.19-0.102-0.26l-0.087-0.09C78.465,59.377,78.369,59.34,78.274,59.34z"/></g></g></svg>